<svg xmlns="http://www.w3.org/2000/svg" viewBox="0 0 256 256" role="img" aria-label="Polygone Logo">
  <title>⬡ Polygone</title>
  <desc>Post-quantum ephemeral privacy network. Hexagon with quantum particle dispersion effect.</desc>

  <defs>
    <!-- Background: near-black, subtle depth -->
    <radialGradient id="bg-glow" cx="50%" cy="50%" r="70%">
      <stop offset="0%" stop-color="#0d0d1a"/>
      <stop offset="100%" stop-color="#040408"/>
    </radialGradient>

    <!-- Primary blue gradient for hexagon -->
    <linearGradient id="hex-fill" x1="0%" y1="0%" x2="100%" y2="100%">
      <stop offset="0%" stop-color="#00c8ff"/>
      <stop offset="50%" stop-color="#0090ff"/>
      <stop offset="100%" stop-color="#0055cc"/>
    </linearGradient>

    <!-- Subtle inner glow -->
    <filter id="glow-core" x="-30%" y="-30%" width="160%" height="160%">
      <feGaussianBlur stdDeviation="6" result="blur"/>
      <feComposite in="SourceGraphic" in2="blur" operator="over"/>
    </filter>

    <!-- Outer atmospheric glow -->
    <filter id="glow-atmo" x="-60%" y="-60%" width="220%" height="220%">
      <feGaussianBlur stdDeviation="12" result="blur"/>
      <feColorMatrix in="blur" type="matrix"
        values="0 0 0 0 0
                0 0.5 0.8 0 0
                0 0 1 0 0
                0 0 0 0.4 0" result="blue-glow"/>
      <feComposite in="SourceGraphic" in2="blue-glow" operator="over"/>
    </filter>

    <!-- Particle dispersion filter -->
    <filter id="disperse" x="-20%" y="-20%" width="140%" height="140%">
      <feGaussianBlur stdDeviation="1.5"/>
    </filter>

    <!-- Hexagon clip path -->
    <clipPath id="hex-clip">
      <polygon points="128,16 228,71 228,185 128,240 28,185 28,71"/>
    </clipPath>

    <!-- Hexagon path for reference -->
    <polygon id="hex" points="128,16 228,71 228,185 128,240 28,185 28,71"/>
  </defs>

  <!-- Deep space background -->
  <rect width="256" height="256" fill="url(#bg-glow)" rx="24"/>

  <!-- ─── Outer atmosphere glow ─── -->
  <g opacity="0.3" filter="url(#glow-atmo)">
    <polygon points="128,16 228,71 228,185 128,240 28,185 28,71"
             fill="none" stroke="#0099ff" stroke-width="3"/>
  </g>

  <!-- ─── Main hexagon body ─── -->
  <g filter="url(#glow-core)">
    <!-- Fill with gradient -->
    <polygon points="128,16 228,71 228,185 128,240 28,185 28,71"
             fill="url(#hex-fill)" opacity="0.92"/>

    <!-- Hexagon inner highlight (top facet) -->
    <polygon points="128,16 228,71 128,128"
             fill="white" opacity="0.08"/>

    <!-- Hexagon inner lines (shamir segments) -->
    <!-- Segment lines: 3 pairs that divide the hex into 3 pairs = 3-of-3 visible -->
    <line x1="128" y1="16"  x2="128" y2="240" stroke="#00e5ff" stroke-width="0.8" opacity="0.25"/>
    <line x1="28"  y1="71"  x2="228" y2="185" stroke="#00e5ff" stroke-width="0.8" opacity="0.25"/>
    <line x1="28"  y1="185" x2="228" y2="71"  stroke="#00e5ff" stroke-width="0.8" opacity="0.25"/>
  </g>

  <!-- ─── Center: the void (information = absent) ─── -->
  <!-- A small hexagon void at the center = the "metadata leak" is inverted -->
  <!-- The center is BLACK = information does not exist -->
  <g opacity="0.95">
    <!-- Inner hexagon (void) -->
    <polygon points="128,88 168,113 168,153 128,178 88,153 88,113"
             fill="#040408"/>
    <!-- Inner void border -->
    <polygon points="128,88 168,113 168,153 128,178 88,153 88,113"
             fill="none" stroke="#00c8ff" stroke-width="1.2" opacity="0.5"/>
  </g>

  <!-- ─── Dispersion particles (Shamir 4-of-7) ─── -->
  <!-- 7 small dots around the center representing the 7 shares -->
  <!-- Positioned at 360/7 = 51.4° intervals, radius ~45px -->
  <g opacity="0.7">
    <!-- Share 1 (top-right) -->
    <circle cx="158" cy="105" r="3.5" fill="#00c8ff"/>
    <!-- Share 2 (right) -->
    <circle cx="173" cy="128" r="2.5" fill="#00aaff" opacity="0.8"/>
    <!-- Share 3 (bottom-right) -->
    <circle cx="163" cy="152" r="3" fill="#0055ff" opacity="0.9"/>
    <!-- Share 4 (bottom-left) -->
    <circle cx="138" cy="165" r="2" fill="#00c8ff" opacity="0.7"/>
    <!-- Share 5 (left) -->
    <circle cx="88" cy="143" r="3.5" fill="#00aaff"/>
    <!-- Share 6 (top-left) -->
    <circle cx="95" cy="113" r="2.5" fill="#0077ff" opacity="0.8"/>
    <!-- Share 7 (center, smallest — the key) -->
    <circle cx="128" cy="128" r="2" fill="#00e5ff"/>
  </g>

  <!-- ─── Quantum wave rings (vaporization) ─── -->
  <g fill="none" opacity="0.12">
    <circle cx="128" cy="128" r="52" stroke="#00c8ff" stroke-width="0.8"/>
    <circle cx="128" cy="128" r="64" stroke="#0077ff" stroke-width="0.5"/>
    <circle cx="128" cy="128" r="78" stroke="#0044aa" stroke-width="0.3"/>
  </g>

  <!-- ─── Corner accent lines ─── -->
  <!-- Top left corner: "signal incoming" -->
  <line x1="20" y1="20" x2="40" y2="20" stroke="#0090ff" stroke-width="1.5" opacity="0.4" stroke-linecap="round"/>
  <line x1="20" y1="20" x2="20" y2="40" stroke="#0090ff" stroke-width="1.5" opacity="0.4" stroke-linecap="round"/>

  <!-- Bottom right corner: "signal outgoing" -->
  <line x1="236" y1="236" x2="216" y2="236" stroke="#0090ff" stroke-width="1.5" opacity="0.4" stroke-linecap="round"/>
  <line x1="236" y1="236" x2="236" y2="216" stroke="#0090ff" stroke-width="1.5" opacity="0.4" stroke-linecap="round"/>
</svg>